<svg width="1203" height="1128" viewBox="0 0 1203 1128" fill="none" xmlns="http://www.w3.org/2000/svg"><circle r="18.901" transform="matrix(0 1 1 0 218.021 745.539)" fill="#9BF0E1"/><path transform="matrix(0 1 1 0 199.119 743.439)" fill="url(#paint0_linear)" d="M0 0h260.413v37.802H0z"/><circle r="18.901" transform="matrix(0 1 1 0 314.626 678.336)" fill="#9BF0E1"/><path transform="matrix(0 1 1 0 295.724 676.236)" fill="url(#paint1_linear)" d="M0 0h327.617v37.802H0z"/><ellipse rx="22.329" ry="18.901" transform="matrix(0 1 1 0 990.866 222.336)" fill="#9BF0E1"/><path transform="matrix(0 1 1 0 971.96 224.814)" fill="url(#paint2_linear)" d="M0 0h779.047v37.802H0z"/><circle r="18.901" transform="matrix(0 1 1 0 411.231 594.331)" fill="#9BF0E1"/><path transform="matrix(0 1 1 0 392.329 592.231)" fill="url(#paint3_linear)" d="M0 0h411.621v37.802H0z"/><path fill-rule="evenodd" clip-rule="evenodd" d="M203.419 912.067l-8.497 28.269 724.754 183.574 282.654-940.336-49.6-12.564c-39.18 140.397-125.32 288.523-254.391 420.598-209.69 214.571-477.518 330.316-694.92 320.459z" fill="url(#paint4_radial)"/><path fill-rule="evenodd" clip-rule="evenodd" d="M8.497 916.158L0 944.426 724.755 1128l282.655-940.336-49.601-12.563c-39.182 140.396-125.319 288.523-254.39 420.598C493.729 810.27 225.899 926.015 8.497 916.158z" fill="url(#paint5_radial)"/><circle r="18.901" transform="matrix(0 1 1 0 507.837 480.944)" fill="#F037A5"/><path transform="matrix(0 1 1 0 488.935 478.844)" fill="url(#paint6_linear)" d="M0 0h525.027v37.802H0z"/><circle r="18.901" transform="matrix(0 1 1 0 604.439 539.728)" fill="#9BF0E1"/><path transform="matrix(0 1 1 0 585.539 537.63)" fill="url(#paint7_linear)" d="M0 0h466.224v37.802H0z"/><circle r="18.901" transform="matrix(0 1 1 0 701.049 594.331)" fill="#9BF0E1"/><path transform="matrix(0 1 1 0 682.147 596.431)" fill="url(#paint8_linear)" d="M0 0h407.421v37.802H0z"/><circle r="18.901" transform="matrix(0 1 1 0 797.652 510.345)" fill="#9BF0E1"/><path transform="matrix(0 1 1 0 778.75 508.246)" fill="url(#paint9_linear)" d="M0 0h495.625v37.802H0z"/><ellipse rx="21.418" ry="18.901" transform="matrix(0 1 1 0 894.254 349.422)" fill="#9BF0E1"/><path transform="matrix(0 1 1 0 875.354 351.801)" fill="url(#paint10_linear)" d="M0 0h652.065v37.802H0z"/><defs><linearGradient id="paint0_linear" x1="32.553" y1="19.48" x2="232.692" y2="19.131" gradientUnits="userSpaceOnUse"><stop stop-color="#9BF0E1"/><stop offset="1" stop-color="#9BF0E1" stop-opacity="0"/></linearGradient><linearGradient id="paint1_linear" x1="40.953" y1="19.48" x2="292.742" y2="18.928" gradientUnits="userSpaceOnUse"><stop stop-color="#9BF0E1"/><stop offset="1" stop-color="#9BF0E1" stop-opacity="0"/></linearGradient><linearGradient id="paint2_linear" x1="97.384" y1="19.48" x2="696.103" y2="16.359" gradientUnits="userSpaceOnUse"><stop stop-color="#9BF0E1"/><stop offset="1" stop-color="#9BF0E1" stop-opacity="0"/></linearGradient><linearGradient id="paint3_linear" x1="51.454" y1="19.48" x2="367.803" y2="18.608" gradientUnits="userSpaceOnUse"><stop stop-color="#9BF0E1"/><stop offset="1" stop-color="#9BF0E1" stop-opacity="0"/></linearGradient><linearGradient id="paint6_linear" x1="65.63" y1="19.48" x2="469.134" y2="18.062" gradientUnits="userSpaceOnUse"><stop stop-color="#F037A5"/><stop offset="1" stop-color="#F037A5" stop-opacity="0"/></linearGradient><linearGradient id="paint7_linear" x1="58.28" y1="19.48" x2="416.592" y2="18.362" gradientUnits="userSpaceOnUse"><stop stop-color="#9BF0E1"/><stop offset="1" stop-color="#9BF0E1" stop-opacity="0"/></linearGradient><linearGradient id="paint8_linear" x1="50.929" y1="19.48" x2="364.05" y2="18.626" gradientUnits="userSpaceOnUse"><stop stop-color="#9BF0E1"/><stop offset="1" stop-color="#9BF0E1" stop-opacity="0"/></linearGradient><linearGradient id="paint9_linear" x1="61.955" y1="19.48" x2="442.863" y2="18.216" gradientUnits="userSpaceOnUse"><stop stop-color="#9BF0E1"/><stop offset="1" stop-color="#9BF0E1" stop-opacity="0"/></linearGradient><linearGradient id="paint10_linear" x1="81.511" y1="19.48" x2="582.645" y2="17.293" gradientUnits="userSpaceOnUse"><stop stop-color="#9BF0E1"/><stop offset="1" stop-color="#9BF0E1" stop-opacity="0"/></linearGradient><radialGradient id="paint4_radial" cx="0" cy="0" r="1" gradientUnits="userSpaceOnUse" gradientTransform="rotate(69.563 -56.995 675.225) scale(444.189 541.718)"><stop stop-color="#757575"/><stop offset="1" stop-color="#757575" stop-opacity="0"/></radialGradient><radialGradient id="paint5_radial" cx="0" cy="0" r="1" gradientUnits="userSpaceOnUse" gradientTransform="rotate(69.563 -157.4 536.945) scale(444.189 541.718)"><stop stop-color="#757575"/><stop offset="1" stop-color="#757575" stop-opacity="0"/></radialGradient></defs></svg>