<svg xmlns="http://www.w3.org/2000/svg" xmlns:xlink="http://www.w3.org/1999/xlink" viewBox="0 0 512 512"><path fill="#549dd0" d="M0 0h512v512H0z"/><defs><path id="a" d="M0 0h512v512H0z"/></defs><clipPath id="b"><use xlink:href="#a" overflow="visible"/></clipPath><path d="M408.8 448.1h-22.3c0-179.4-148-325.3-329.9-325.3v-22.3c194.2 0 352.2 155.9 352.2 347.6" clip-path="url(#b)" fill="#fff"/><defs><path id="c" d="M0 0h512v512H0z"/></defs><clipPath id="d"><use xlink:href="#c" overflow="visible"/></clipPath><path d="M424.2 328.5C397.4 215.9 306.3 122 192 89.2l5.1-17.8C317.7 106 414 205.2 442.2 324.2l-18 4.3z" clip-path="url(#d)" fill="#fff"/><defs><path id="e" d="M0 0h512v512H0z"/></defs><clipPath id="f"><use xlink:href="#e" overflow="visible"/></clipPath><path d="M441.3 222.9c-27.6-60.1-74.5-112.5-132.2-147.5l7.7-12.7c60.2 36.6 109.2 91.3 138 154l-13.5 6.2z" clip-path="url(#f)" fill="#fff"/></svg>